{
	"asset":{
		"generator":"Khronos glTF Blender I/O v4.0.44",
		"version":"2.0"
	},
	"scene":0,
	"scenes":[
		{
			"name":"Scene",
			"nodes":[
				0,
				1,
				2,
				3,
				4,
				5,
				6,
				7,
				8,
				9,
				10,
				11,
				12,
				13,
				14,
				15,
				16,
				17,
				18,
				19,
				20,
				48
			]
		}
	],
	"nodes":[
		{
			"name":"Anchor_00_Wrist",
			"translation":[
				-0.20191961526870728,
				0.7640251517295837,
				-0.2119121551513672
			]
		},
		{
			"name":"Anchor_05_Index_MCP",
			"translation":[
				-0.3414830267429352,
				0.8974829912185669,
				0.14985579252243042
			]
		},
		{
			"name":"Anchor_06_Index_PIP",
			"translation":[
				-0.3416922092437744,
				0.9339728951454163,
				0.2954152226448059
			]
		},
		{
			"name":"Anchor_07_Index_DIP",
			"translation":[
				-0.3160924017429352,
				0.9728038907051086,
				0.406116783618927
			]
		},
		{
			"name":"Anchor_08_Index_Tip",
			"translation":[
				-0.2709451913833618,
				1.0030193328857422,
				0.49749764800071716
			]
		},
		{
			"name":"Anchor_13_Ring_MCP",
			"translation":[
				-0.27043431997299194,
				0.7198916077613831,
				0.17949062585830688
			]
		},
		{
			"name":"Anchor_14_Ring_PIP",
			"translation":[
				-0.27101582288742065,
				0.738966703414917,
				0.3338159918785095
			]
		},
		{
			"name":"Anchor_15_Ring_DIP",
			"translation":[
				-0.2473246157169342,
				0.7775470018386841,
				0.44962769746780396
			]
		},
		{
			"name":"Anchor_16_Ring_Tip",
			"translation":[
				-0.2042878270149231,
				0.8308200836181641,
				0.5417414307594299
			]
		},
		{
			"name":"Anchor_17_Pinky_MCP",
			"translation":[
				-0.21250495314598083,
				0.6406894326210022,
				0.15243834257125854
			]
		},
		{
			"name":"Anchor_18_Pinky_PIP",
			"translation":[
				-0.19942137598991394,
				0.6533187627792358,
				0.3012043833732605
			]
		},
		{
			"name":"Anchor_19_Pinky_DIP",
			"translation":[
				-0.1684928834438324,
				0.6762001514434814,
				0.37932151556015015
			]
		},
		{
			"name":"Anchor_20_Pinky_Tip",
			"translation":[
				-0.13111241161823273,
				0.7176438570022583,
				0.44713324308395386
			]
		},
		{
			"name":"Anchor_09_Middle_MCP",
			"translation":[
				-0.3301420509815216,
				0.7995567917823792,
				0.1775224208831787
			]
		},
		{
			"name":"Anchor_10_Middle_PIP",
			"translation":[
				-0.335064172744751,
				0.8267492055892944,
				0.3540765643119812
			]
		},
		{
			"name":"Anchor_11_Middle_DIP",
			"translation":[
				-0.31451186537742615,
				0.866607666015625,
				0.47948580980300903
			]
		},
		{
			"name":"Anchor_12_Middle_Tip",
			"translation":[
				-0.2808570861816406,
				0.9191199541091919,
				0.5741108059883118
			]
		},
		{
			"name":"Anchor_01_Thumb_CMC",
			"translation":[
				-0.20469903945922852,
				0.9380089044570923,
				-0.10494095087051392
			]
		},
		{
			"name":"Anchor_02_Thumb_MCP",
			"translation":[
				-0.21519404649734497,
				1.0139281749725342,
				-0.026560306549072266
			]
		},
		{
			"name":"Anchor_03_Thumb_IP",
			"translation":[
				-0.22720032930374146,
				1.1227695941925049,
				0.12560945749282837
			]
		},
		{
			"name":"Anchor_04_Thumb_Tip",
			"translation":[
				-0.24480536580085754,
				1.2446868419647217,
				0.13644257187843323
			]
		},
		{
			"mesh":0,
			"name":"Hand.R.003",
			"rotation":[
				0.16836465895175934,
				0.932574450969696,
				-0.26426735520362854,
				0.17922329902648926
			],
			"scale":[
				1.4188939332962036,
				1.4188941717147827,
				1.4188941717147827
			],
			"translation":[
				1.2298539876937866,
				-0.6591076850891113,
				1.3244893550872803
			]
		},
		{
			"name":"Bone.002",
			"rotation":[
				-0.005786525085568428,
				-0.00014957950043026358,
				-0.02762732282280922,
				0.9996015429496765
			],
			"scale":[
				0.9999998807907104,
				1,
				0.9999999403953552
			],
			"translation":[
				-5.564652383327484e-08,
				0.1010730043053627,
				4.842877388000488e-08
			]
		},
		{
			"children":[
				22
			],
			"name":"Bone.001",
			"rotation":[
				-0.013992337509989738,
				9.410221537109464e-05,
				0.003567793406546116,
				0.9998957514762878
			],
			"scale":[
				1,
				0.9999999403953552,
				1
			],
			"translation":[
				-3.207242116332054e-08,
				0.12631623446941376,
				9.313225746154785e-10
			]
		},
		{
			"children":[
				23
			],
			"name":"Bone",
			"rotation":[
				-0.016489604488015175,
				-0.00433161249384284,
				-0.07696112990379333,
				0.9968883395195007
			],
			"translation":[
				1.3969838619232178e-08,
				0.12841029465198517,
				-2.2351741790771484e-08
			]
		},
		{
			"children":[
				24
			],
			"name":"Bone.012",
			"rotation":[
				-0.10345657169818878,
				-0.15842114388942719,
				0.04458140209317207,
				0.9809240698814392
			],
			"scale":[
				0.9999999403953552,
				1,
				0.9999999403953552
			],
			"translation":[
				-0.05844064801931381,
				0.2119658887386322,
				-0.007038463838398457
			]
		},
		{
			"name":"Bone.008",
			"rotation":[
				-0.03662823885679245,
				-0.0004699950513895601,
				-0.0130292484536767,
				0.9992439150810242
			],
			"scale":[
				1.0000001192092896,
				0.9999999403953552,
				0.9999999403953552
			],
			"translation":[
				-8.195638656616211e-08,
				0.10466849058866501,
				-5.21540641784668e-08
			]
		},
		{
			"children":[
				26
			],
			"name":"Bone.007",
			"rotation":[
				-0.03411064296960831,
				0.002038507955148816,
				0.018981965258717537,
				0.9992356896400452
			],
			"scale":[
				1,
				0.9999998211860657,
				1.0000001192092896
			],
			"translation":[
				6.705522537231445e-08,
				0.130892813205719,
				4.0978193283081055e-08
			]
		},
		{
			"children":[
				27
			],
			"name":"Bone.006",
			"rotation":[
				0.010513674467802048,
				0.008998307399451733,
				0.06831462681293488,
				0.9975678324699402
			],
			"scale":[
				1,
				1,
				0.9999999403953552
			],
			"translation":[
				-1.51805579662323e-07,
				0.12942756712436676,
				-9.42964106798172e-08
			]
		},
		{
			"children":[
				28
			],
			"name":"Bone.014",
			"rotation":[
				-0.0780472457408905,
				0.038737885653972626,
				-0.12901511788368225,
				0.9878072142601013
			],
			"scale":[
				0.9999998807907104,
				0.9999999403953552,
				1
			],
			"translation":[
				0.06438415497541428,
				0.1974150538444519,
				-0.008896884508430958
			]
		},
		{
			"name":"Bone.011",
			"rotation":[
				0.004343773704022169,
				-0.002774104243144393,
				0.013972660526633263,
				0.9998891353607178
			],
			"scale":[
				1,
				0.9999998807907104,
				0.9999999403953552
			],
			"translation":[
				6.705522537231445e-08,
				0.0732969343662262,
				5.587935447692871e-08
			]
		},
		{
			"children":[
				30
			],
			"name":"Bone.010",
			"rotation":[
				-0.06451208889484406,
				7.034688314888626e-05,
				0.0011352271540090442,
				0.9979162812232971
			],
			"scale":[
				1,
				0.9999998807907104,
				1
			],
			"translation":[
				-2.7939677238464355e-08,
				0.12615585327148438,
				4.190951585769653e-08
			]
		},
		{
			"children":[
				31
			],
			"name":"Bone.009",
			"rotation":[
				-0.003955053165555,
				0.0005947868921793997,
				0.14793695509433746,
				0.9889886975288391
			],
			"scale":[
				0.9999999403953552,
				1.0000001192092896,
				1.0000001192092896
			],
			"translation":[
				1.803855411708355e-07,
				0.1173025369644165,
				-7.019843906164169e-08
			]
		},
		{
			"children":[
				32
			],
			"name":"Bone.015",
			"rotation":[
				-0.09822539240121841,
				0.07756197452545166,
				-0.22666369378566742,
				0.9658982753753662
			],
			"scale":[
				0.9999999403953552,
				1,
				1
			],
			"translation":[
				0.11856133490800858,
				0.17135974764823914,
				-0.010785055346786976
			]
		},
		{
			"name":"Bone.005",
			"rotation":[
				-0.01696288026869297,
				0.00019251466437708586,
				0.011541973799467087,
				0.9997894763946533
			],
			"scale":[
				0.9999998807907104,
				1,
				1
			],
			"translation":[
				7.450580596923828e-09,
				0.11210936307907104,
				2.60770320892334e-08
			]
		},
		{
			"children":[
				34
			],
			"name":"Bone.004",
			"rotation":[
				-0.021079475060105324,
				-3.3804277336457744e-05,
				-0.0004410531837493181,
				0.9997777342796326
			],
			"scale":[
				0.9999998807907104,
				1.0000001192092896,
				1
			],
			"translation":[
				1.0058283805847168e-07,
				0.15042388439178467,
				5.4016709327697754e-08
			]
		},
		{
			"children":[
				35
			],
			"name":"Bone.003",
			"rotation":[
				-0.017692530527710915,
				0.00015271130541805178,
				0.0032245127949863672,
				0.9998382925987244
			],
			"scale":[
				1,
				0.9999998807907104,
				0.9999998807907104
			],
			"translation":[
				-8.288770914077759e-08,
				0.1376182734966278,
				-2.421438694000244e-08
			]
		},
		{
			"children":[
				36
			],
			"name":"Bone.013",
			"rotation":[
				-0.05517110228538513,
				-0.010910088196396828,
				-0.06482774764299393,
				0.9963104128837585
			],
			"translation":[
				-1.564621925354004e-07,
				0.21000024676322937,
				-6.05359673500061e-08
			]
		},
		{
			"name":"index control",
			"rotation":[
				-0.10345667600631714,
				-0.1584181785583496,
				0.044581323862075806,
				0.9809245467185974
			],
			"scale":[
				1,
				1.0000001192092896,
				1
			],
			"translation":[
				-0.043702833354473114,
				0.36945199966430664,
				0.1621858924627304
			]
		},
		{
			"name":"Major control",
			"rotation":[
				-0.10345667600631714,
				-0.15841829776763916,
				0.04458123818039894,
				0.9809245467185974
			],
			"translation":[
				0.01614990271627903,
				0.3758111000061035,
				0.16669142246246338
			]
		},
		{
			"name":"Ring control",
			"rotation":[
				-0.10932113230228424,
				0.0029099038802087307,
				0.027196485549211502,
				0.9936301112174988
			],
			"translation":[
				0.08341379463672638,
				0.3651604652404785,
				0.17839522659778595
			]
		},
		{
			"name":"Pinky control",
			"rotation":[
				-0.09722385555505753,
				0.09991399198770523,
				-0.049859803169965744,
				0.9889786243438721
			],
			"translation":[
				0.14461731910705566,
				0.346041202545166,
				0.19256222248077393
			]
		},
		{
			"name":"Bone.019",
			"rotation":[
				-0.04121839255094528,
				-0.007099388632923365,
				-0.025451259687542915,
				0.9988006949424744
			],
			"scale":[
				0.9999999403953552,
				1,
				1.0000001192092896
			],
			"translation":[
				-1.4901161193847656e-08,
				0.14383502304553986,
				8.195638656616211e-08
			]
		},
		{
			"children":[
				42
			],
			"name":"Bone.018",
			"rotation":[
				-0.06960233300924301,
				-0.0013639861717820168,
				-0.019522422924637794,
				0.9973828792572021
			],
			"scale":[
				1,
				1.0000001192092896,
				1.0000001192092896
			],
			"translation":[
				-2.9802322387695312e-08,
				0.09227600693702698,
				8.940696716308594e-08
			]
		},
		{
			"children":[
				43
			],
			"name":"Bone.017",
			"rotation":[
				-0.10078607499599457,
				-0.22607643902301788,
				-0.18319126963615417,
				0.9514055848121643
			],
			"scale":[
				1.0000001192092896,
				1.0000001192092896,
				1
			],
			"translation":[
				5.960464477539063e-08,
				0.10424962639808655,
				-2.9802322387695312e-08
			]
		},
		{
			"children":[
				44
			],
			"name":"Bone.021",
			"rotation":[
				-0.13398288190364838,
				-0.28436070680618286,
				0.5033103227615356,
				0.8049014806747437
			],
			"scale":[
				0.9999999403953552,
				0.9999998807907104,
				1
			],
			"translation":[
				-0.03299330919981003,
				0.05308080464601517,
				-0.0337715782225132
			]
		},
		{
			"children":[
				25,
				29,
				33,
				37,
				38,
				39,
				40,
				41,
				45
			],
			"name":"Bone.016",
			"rotation":[
				0.08947160840034485,
				0.010852684266865253,
				0.011348656378686428,
				0.9958656430244446
			],
			"scale":[
				1.0000001192092896,
				0.9999999403953552,
				1
			],
			"translation":[
				8.940696716308594e-08,
				0.47846800088882446,
				-9.313225746154785e-09
			]
		},
		{
			"children":[
				46
			],
			"name":"Bone.020",
			"rotation":[
				-0.04524203762412071,
				-0.6776267886161804,
				-0.7336464524269104,
				0.023199651390314102
			],
			"scale":[
				1.000008463859558,
				1,
				1.000006079673767
			],
			"translation":[
				0.37207096815109253,
				0.0758686512708664,
				-0.03979545831680298
			]
		},
		{
			"children":[
				21,
				47
			],
			"name":"Hand_Right.002",
			"rotation":[
				-0.1903841644525528,
				0.005852974019944668,
				0.8194465637207031,
				0.5405802130699158
			],
			"scale":[
				1.188000202178955,
				1.1880000829696655,
				1.1880003213882446
			],
			"translation":[
				-0.051599837839603424,
				0.5756059288978577,
				-0.7266970276832581
			]
		}
	],
	"materials":[
		{
			"doubleSided":true,
			"name":"Skin",
			"pbrMetallicRoughness":{
				"metallicFactor":0,
				"roughnessFactor":0.6000000238418579
			}
		}
	],
	"meshes":[
		{
			"name":"Hand.R.003",
			"primitives":[
				{
					"attributes":{
						"POSITION":0,
						"NORMAL":1
					},
					"indices":2,
					"material":0
				}
			]
		}
	],
	"skins":[
		{
			"inverseBindMatrices":3,
			"joints":[
				47,
				46,
				25,
				24,
				23,
				22,
				29,
				28,
				27,
				26,
				33,
				32,
				31,
				30,
				37,
				36,
				35,
				34,
				38,
				39,
				40,
				41,
				45,
				44,
				43,
				42
			],
			"name":"Hand_Right.002"
		}
	],
	"accessors":[
		{
			"bufferView":0,
			"componentType":5126,
			"count":69825,
			"max":[
				1.3429932594299316,
				0.5010672807693481,
				0.32694441080093384
			],
			"min":[
				0.7693530321121216,
				-0.04498353600502014,
				-0.3204675316810608
			],
			"type":"VEC3"
		},
		{
			"bufferView":1,
			"componentType":5126,
			"count":69825,
			"type":"VEC3"
		},
		{
			"bufferView":2,
			"componentType":5125,
			"count":418938,
			"type":"SCALAR"
		},
		{
			"bufferView":3,
			"componentType":5126,
			"count":26,
			"type":"MAT4"
		}
	],
	"bufferViews":[
		{
			"buffer":0,
			"byteLength":837900,
			"byteOffset":0,
			"target":34962
		},
		{
			"buffer":0,
			"byteLength":837900,
			"byteOffset":837900,
			"target":34962
		},
		{
			"buffer":0,
			"byteLength":1675752,
			"byteOffset":1675800,
			"target":34963
		},
		{
			"buffer":0,
			"byteLength":1664,
			"byteOffset":3351552
		}
	],
	"buffers":[
		{
			"byteLength":3353216,
			"uri":"right_hand_empty_points.bin"
		}
	]
}
